<?xml version="1.0" encoding="UTF-8"?>
<svg width="64px" height="61px" viewBox="0 0 64 61" version="1.1" xmlns="http://www.w3.org/2000/svg" xmlns:xlink="http://www.w3.org/1999/xlink">
    <!-- Generator: Sketch 52.1 (67048) - http://www.bohemiancoding.com/sketch -->
    <title>cat</title>
    <desc>Created with Sketch.</desc>
    <g id="Page-1" stroke="none" stroke-width="1" fill="none" fill-rule="evenodd">
        <path d="M54.0671043,38.911113 C53.140425,38.3180382 52.1643228,37.7867421 51.1511534,37.3295803 C48.574985,36.1619644 45.8320142,35.4576881 43.0334427,35.1364393 C41.631068,34.9758149 40.3275391,34.9140362 39.1599232,34.9325698 C39.7838872,34.5989653 40.4263849,34.2715386 41.093594,33.9626455 C43.8056754,32.6961838 46.7154485,31.6891922 49.6252215,30.9293152 C50.6445688,30.6636671 51.5897817,30.4412641 52.4361488,30.268284 C52.7326861,30.2065053 52.9921563,30.1570824 53.2207372,30.1138374 C53.3010494,30.1014817 53.3690059,30.089126 53.4246067,30.0767702 C53.4616739,30.0705924 53.4802074,30.0644145 53.4925632,30.0644145 C53.7458555,30.0211695 53.9188356,29.7864107 53.8755906,29.5331184 C53.8323456,29.279826 53.5975868,29.1068459 53.3442945,29.1500909 C53.3319388,29.1500909 53.3072273,29.1562688 53.2701601,29.1624467 C53.2083815,29.1748024 53.140425,29.1871581 53.053935,29.1995138 C52.8191762,29.2427589 52.5535281,29.2921818 52.2508129,29.3539604 C51.3859122,29.5331184 50.4221657,29.7555214 49.3904628,30.0273473 C46.4312668,30.805758 43.4720709,31.8251052 40.7043887,33.1224562 C39.3946819,33.7340646 38.1591095,34.3950958 37.0038493,35.1117278 L35.1999136,36.223743 L37.3065646,35.9580949 C37.3127424,35.9580949 37.3250981,35.9580949 37.3436317,35.9519171 C37.374521,35.9457392 37.4115882,35.9457392 37.4548332,35.9395613 C37.5783905,35.9272056 37.7266592,35.9148499 37.8934614,35.9024942 C39.3081919,35.8036484 41.0256375,35.8283598 42.928419,36.044585 C45.6343226,36.359656 48.2908033,37.0392208 50.768126,38.1635917 C51.7380503,38.6022199 52.6709075,39.1088046 53.5666975,39.6771679 C53.7829227,39.8130809 54.0671043,39.7513022 54.2091952,39.5350771 C54.3451081,39.3373855 54.2833295,39.047026 54.0671043,38.911113 Z M63.2288738,39.9798831 C63.4389211,39.8254366 63.7416363,39.8810373 63.9022607,40.0849068 C64.0628852,40.2887762 64.0196401,40.5791358 63.8157707,40.7335823 C63.6922134,40.8262502 63.5686562,40.9189182 63.4389211,40.9992304 C62.6481547,41.5181708 61.8017876,41.820886 60.9430648,41.9506211 C60.3932351,42.0371112 59.8804725,42.0432891 59.4356665,42.000044 C59.4233108,42.1050677 59.4047772,42.2224471 59.3862436,42.3460043 C59.2812199,42.9946798 59.1267734,43.7174897 58.8981925,44.4959003 C58.249517,46.7137528 57.1807468,48.9254274 55.605392,50.9950112 C53.5728754,53.6514919 50.8422603,55.8631665 47.320879,57.4817664 C43.1755335,59.3845479 38.0540859,60.410073 31.8762238,60.410073 C25.7972075,60.410073 20.7375385,59.4030815 16.6107266,57.5250114 C13.101701,55.931123 10.3587302,53.7503377 8.28914643,51.1309242 C6.67672443,49.0922297 5.56470926,46.9052665 4.86661084,44.7244812 C4.61949636,43.9584263 4.44033836,43.2479722 4.32295898,42.6054745 C4.29824753,42.4757394 4.27971395,42.3645379 4.26118036,42.2533364 C4.11291167,42.2348028 3.94610939,42.2100913 3.77312926,42.1853799 C3.16769877,42.0865341 2.56844615,41.9444433 2.00008284,41.734396 C1.24638367,41.4563922 0.610063879,41.0918983 0.1343685,40.6162029 C-0.0447895,40.4370449 -0.0447895,40.1405075 0.1343685,39.9613495 C0.3135265,39.7821915 0.610063879,39.7821915 0.789221879,39.9613495 C1.15371574,40.3320213 1.67883402,40.6285586 2.31515381,40.8633174 C2.8217385,41.0486533 3.36539036,41.1783884 3.91522008,41.2648784 C3.99553229,41.2772342 4.06966664,41.283412 4.14380098,41.2957678 L4.14380098,40.925096 C2.73524843,39.6524564 1.66647829,38.3612833 0.894245534,37.119533 C0.610063879,36.6623712 0.387660845,36.2422766 0.220858569,35.8716049 C0.159079948,35.7418698 0.109657052,35.6244904 0.0725898793,35.5194667 C0.047878431,35.4576881 0.0293448448,35.4082652 0.0231669827,35.3835538 C-0.0571452241,35.1426171 0.0787677413,34.8831469 0.319704362,34.8028347 C0.560640983,34.7225225 0.820111189,34.8584355 0.900423396,35.0993721 C0.900423396,35.1117278 0.91277912,35.1426171 0.931312706,35.19204 C0.968379879,35.2785301 1.00544705,35.3773759 1.06104781,35.4947553 C1.21549436,35.8345377 1.41936381,36.2175651 1.67883402,36.6376598 C2.27808664,37.613762 3.08120871,38.6207535 4.10673381,39.627745 C4.05113305,36.9218414 4.19322388,34.1356256 4.50829484,31.1517182 C5.24346043,24.1954456 7.0226847,17.4677538 9.53707456,11.1478009 C10.7170462,8.17624921 11.9773301,5.50123494 13.2437918,3.14746949 C13.6885979,2.31963598 14.0963368,1.59682611 14.4670085,0.979039907 C14.5967436,0.762814734 14.714123,0.577478872 14.8129688,0.416854459 C14.8500359,0.355075838 14.8809253,0.311830804 14.9056367,0.268585769 C14.9179924,0.243874321 14.9303481,0.225340735 14.936526,0.219162873 C15.0971504,-0.0279516101 15.4369328,-0.0650187825 15.6469801,0.138850666 C16.548948,1.02228494 17.4509159,2.1034108 18.3528837,3.33898322 C19.2486737,4.57455563 20.088863,5.89044025 20.8549179,7.20632487 C21.1205659,7.66348666 21.3615026,8.09593701 21.565372,8.47896446 C21.5962613,8.52838735 21.6271506,8.58398811 21.6518621,8.63341101 C23.579355,8.15153777 26.001077,7.80557749 28.3115974,7.64495308 C31.8515123,7.27428135 35.6076525,7.49668439 39.2402354,8.09593701 C40.0742468,8.23184997 40.8341238,8.38011866 41.5075108,8.52838735 C41.6866688,8.56545452 41.8472932,8.6025217 41.9955619,8.63958887 C42.1623641,8.31216218 42.3353443,7.99091335 42.5145023,7.67584239 C43.7130075,5.52594639 44.991825,3.66023204 46.2768203,2.07252149 C46.7278042,1.51651391 47.1478988,1.03464067 47.5247484,0.626901769 C47.6544835,0.484810941 47.7718629,0.3612537 47.8768865,0.256230045 C47.9386652,0.194451424 47.9819102,0.15120639 48.0066217,0.126494942 C48.2228468,-0.0773745066 48.5688071,-0.0279516101 48.7232537,0.225340735 C51.3673786,4.61780066 53.4925632,9.17088501 55.1482302,13.828993 C56.5876721,17.8754927 57.6502643,21.934348 58.3792521,25.9437805 C58.9785047,29.236581 59.3306428,32.3749349 59.4789115,35.3155973 C59.5530459,36.7673949 59.5715794,38.0771016 59.5530459,39.226184 C59.9916741,38.867868 60.4179465,38.4724848 60.8318633,38.0338566 C61.4558274,37.3666475 62.0180128,36.6561933 62.5060639,35.9457392 C62.6728662,35.6986247 62.8273127,35.463866 62.95087,35.2599965 C62.994115,35.1858622 63.0311822,35.1240835 63.0620715,35.0684828 C63.0806051,35.0375935 63.0929608,35.0190599 63.0991387,35.0067042 C63.2226959,34.7843011 63.5068776,34.7039889 63.7292806,34.8275462 C63.9516836,34.9511034 64.0319959,35.2352851 63.9084386,35.4576881 C63.8775493,35.5132889 63.8219485,35.6059568 63.7416363,35.7418698 C63.6119012,35.9642728 63.4512768,36.2113873 63.2721188,36.4708575 C62.7593563,37.2183788 62.1662815,37.972078 61.5052503,38.6701764 C60.8998198,39.3188519 60.2573221,39.8872152 59.590113,40.3690884 L59.546868,41.061009 C59.9113619,41.0918983 60.3252786,41.0857204 60.7762625,41.017764 C61.5114281,40.9065624 62.234238,40.6470922 62.907625,40.208464 C63.0126486,40.1343297 63.1238501,40.0601953 63.2288738,39.9798831 Z M10.1301493,31.1887854 C9.40733946,33.1718791 9.43822877,35.3773759 10.2969516,37.5334498 C11.0938958,39.5412549 12.6754285,41.1104319 14.6832337,41.9011982 C17.0740663,42.8402333 19.5143218,42.7722768 21.6147949,41.8085303 C21.5839056,41.7838189 21.5530163,41.7591074 21.522127,41.734396 C20.9784751,41.3019456 20.4348232,40.7830052 19.9282386,40.1775747 C18.5011524,38.4786626 17.6300739,36.446146 17.5991846,34.0985584 C17.5682953,31.7077258 18.519686,29.6813871 20.1073966,28.02572 C20.6510484,27.4635346 21.2317675,26.9816613 21.8124865,26.5801003 C21.8433758,26.5553889 21.8680872,26.5368553 21.8989766,26.5183217 C21.4047476,26.2650293 20.8858072,26.0673378 20.3483332,25.9190691 C19.6193455,25.7213775 18.8656463,25.6163538 18.0934135,25.6163538 C14.5040757,25.6163538 11.3410103,27.8712735 10.1301493,31.1887854 Z M58.5892994,40.6532701 C58.6634337,39.226184 58.6634337,37.4469597 58.5584101,35.3650202 C58.4101414,32.4676029 58.0641811,29.3663161 57.4711063,26.1044049 C56.7482965,22.1443953 55.7042378,18.1349629 54.2771516,14.1378861 C52.7017968,9.71453687 50.7001695,5.39003342 48.2290247,1.21379867 C48.216669,1.22615439 48.2043132,1.23851011 48.1919575,1.25086584 C47.8274637,1.64007115 47.4259026,2.10958866 46.9872744,2.64706266 C45.7331684,4.19152818 44.4790624,6.02017535 43.3114465,8.11447059 C43.0828656,8.52838735 42.8604626,8.94848197 42.6380595,9.37475445 C42.5392137,9.56626818 42.3168107,9.66511397 42.1067634,9.60951321 C42.1005855,9.60951321 42.0820519,9.60333535 42.0573405,9.59715749 C42.0140954,9.58480177 41.9646726,9.57244604 41.9028939,9.56009032 C41.7299138,9.52302314 41.5260443,9.47360025 41.2974634,9.42417735 C40.6364322,9.27590866 39.8889109,9.13381783 39.0734331,8.99790487 C35.6508975,8.43571942 32.1233383,8.21331639 28.7934706,8.51603163 C28.7934706,8.77550183 28.774937,9.0905728 28.7502256,9.45506666 C28.688447,10.3076116 28.5710676,11.2404688 28.3795539,12.2289267 C27.8606135,14.9657196 26.8906891,17.6839789 25.3771129,20.2230802 C24.2774535,22.0640831 22.9245017,23.7506395 21.2935461,25.2395042 C21.9113323,25.4619073 22.4982292,25.7522668 23.0542368,26.0982271 L23.7523352,26.5306774 C26.1493457,28.1987002 27.4961196,31.0652282 27.4899417,34.0800249 C27.4837639,37.5025604 25.642761,40.6100251 22.7206322,42.2656921 C20.2371317,43.6742446 17.2408686,43.8966477 14.3372734,42.7537432 C12.0885316,41.8703089 10.321663,40.1096182 9.43205091,37.8670543 C8.59186167,35.7480476 8.47448229,33.579618 9.02431201,31.5779907 C8.92546622,31.5903464 8.82662043,31.6027022 8.72777463,31.6150579 C8.28296857,31.6644808 7.85051822,31.701548 7.44277932,31.7262594 C7.17095339,31.744793 6.91148319,31.7509709 6.67672443,31.7509709 C6.64583512,31.7509709 6.61494581,31.7509709 6.5840565,31.7509709 C6.2257405,31.744793 5.84271305,31.7262594 5.4596856,31.6953701 C5.42879629,31.6953701 5.39790698,31.6891922 5.36701767,31.6891922 C5.00870167,35.2291072 4.90985588,38.4910184 5.1013696,41.6787952 C5.1013696,41.6849731 5.10754746,41.6973288 5.10754746,41.7158624 C5.11372533,41.7591074 5.11990319,41.8023524 5.12608105,41.8579532 C5.1507925,42.0185776 5.18168181,42.2039135 5.21874898,42.4139608 C5.3299505,43.0193913 5.49675277,43.6927782 5.73151153,44.421766 C6.4048985,46.5037055 7.46131291,48.585645 8.99960057,50.5316715 C10.9826943,53.0337057 13.6082857,55.1218231 16.9813984,56.6539328 C20.984653,58.4764022 25.908409,59.4586822 31.8576902,59.4586822 C37.9058172,59.4586822 42.8975297,58.4640464 46.9131401,56.6168657 C50.2986085,55.0600444 52.9056663,52.9472156 54.845515,50.4081143 C56.3529133,48.4373763 57.3660827,46.3245475 57.9838689,44.2117186 C58.2000941,43.4765531 58.3483628,42.7908104 58.4472085,42.179202 C58.4780979,41.9691547 58.5028093,41.777641 58.5213429,41.6170166 C58.5275208,41.5614158 58.5275208,41.5119929 58.5336986,41.4749258 C58.5336986,41.4502143 58.5336986,41.4378586 58.5336986,41.4316807 C58.5336986,41.4255029 58.5336986,41.419325 58.5336986,41.4131471 C58.5336986,41.4069693 58.5398765,41.3946135 58.5398765,41.3699021 C58.5460543,41.3328349 58.5460543,41.283412 58.5522322,41.2278113 C58.5645879,41.0671869 58.5769436,40.8756731 58.5892994,40.6532701 Z" id="cat" fill="#000000"></path>
    </g>
</svg>