<?xml version="1.0" encoding="UTF-8"?>
<svg width="16px" height="16px" viewBox="0 0 16 16" version="1.1" xmlns="http://www.w3.org/2000/svg" xmlns:xlink="http://www.w3.org/1999/xlink">
    <!-- Generator: Sketch 61 (89581) - https://sketch.com -->
    <title>编组 2</title>
    <desc>Created with Sketch.</desc>
    <defs>
        <path d="M3.71345895,0.086533034 C3.902457,0.198683206 4.06326971,0.35257827 4.18358163,0.536432554 C4.49079697,0.909642946 4.77155342,1.30384795 5.02380088,1.71616907 C5.07381393,1.78615344 5.1438322,1.91612441 5.21385047,1.93611995 C5.27223033,1.9559269 5.3355176,1.9559269 5.39389745,1.93611995 L5.60395226,1.93611995 L6.3341428,1.83614228 C6.82047063,1.80603836 7.30819605,1.80603836 7.79452388,1.83614228 C8.3040125,1.85975186 8.81168052,1.91316472 9.31492062,1.99610655 L9.47496238,1.99610655 C9.53122828,2.00580834 9.58874084,2.00580834 9.64500675,1.99610655 C9.6950198,1.99610655 9.72502763,1.90612665 9.74503285,1.88613111 C9.77186169,1.82900717 9.80544317,1.77530281 9.84505895,1.72616684 C10.0985319,1.29714017 10.3862057,0.889242347 10.7052834,0.506439252 C10.8254868,0.329092246 10.9913654,0.18747292 11.1854087,0.0965308011 C11.5570557,-0.0529003022 11.9821718,0.0915691923 12.1856697,0.436454883 C12.6786675,1.25176664 13.1003419,2.10808715 13.4459986,2.99588326 C13.8244538,3.94401892 14.1287786,4.92006086 14.3562361,5.91523126 C14.5853366,6.90118613 14.7325423,7.90437546 14.796351,8.91456139 C14.8982634,9.79886235 14.8543353,10.6938848 14.666317,11.5639697 C14.6368631,11.7654015 14.5539703,11.9552722 14.4262544,12.1138469 C14.2976071,12.2412845 14.1091309,12.2874196 13.9361265,12.2338201 C13.772118,12.1860074 13.6438736,12.0578251 13.5960377,11.893896 C13.5777396,11.713354 13.6052608,11.5311144 13.6760586,11.3640143 C13.8659644,10.4732896 13.8964435,9.55597517 13.7660821,8.65461944 C13.5900215,6.63925791 13.0831086,4.66663254 12.2656906,2.81592345 C12.0656384,2.35602617 11.845581,1.91612441 11.6155209,1.47622266 C11.6155209,1.47622266 11.5154948,1.29626285 11.4254713,1.29626285 C11.3354479,1.29626285 11.2454244,1.44622936 11.2154165,1.48622043 C11.07538,1.676178 10.9353435,1.87613335 10.8053095,2.08608645 C10.658173,2.37586738 10.4731735,2.64482714 10.255166,2.88590782 C9.92507983,3.15584754 9.53497804,2.99588326 9.16488146,2.88590782 C8.1734438,2.71585409 7.16239248,2.69227431 6.16409843,2.81592345 C5.92403579,2.81592345 5.67397054,2.88590782 5.43390789,2.93589666 C5.24652441,2.98089451 5.0511426,2.98089451 4.86375912,2.93589666 C4.61554657,2.84355743 4.41410473,2.65659486 4.30361295,2.41601277 C4.07141275,2.0137039 3.81417318,1.6263618 3.53341197,1.25627179 C3.4633937,1.16629188 3.42338326,1.17628965 3.39337543,1.17628965 C3.3633676,1.17628965 3.39337543,1.17628965 3.31335455,1.25627179 C3.24408391,1.36960128 3.18065137,1.48639412 3.12330496,1.60619363 C3.00327364,1.82614451 2.89324492,2.04609539 2.78321621,2.26604626 C2.38102099,3.17660044 2.04669042,4.11561448 1.7829552,5.07541882 C1.50256546,6.05744538 1.30186278,7.06047291 1.1827986,8.07474895 C1.12278293,8.56463954 1.0927751,9.07452566 1.07276988,9.55441848 C1.0546387,9.9716574 1.07136774,10.389681 1.12278293,10.8041394 C1.23316221,11.613546 1.58126392,12.3720404 2.12304395,12.9836526 C2.62363785,13.5539358 3.24569582,14.0048803 3.94351899,14.3033579 C4.71148089,14.6240896 5.52480352,14.8231053 6.35414802,14.8932261 C7.293966,14.986696 8.24187914,14.9598178 9.17488407,14.813244 C9.96107032,14.6993366 10.72213,14.4525346 11.4254713,14.083407 C11.7384317,13.9137346 12.0333531,13.7127492 12.305701,13.483541 C12.5257585,13.3035811 12.7258107,13.1036258 12.9658733,12.9336638 C13.4876987,12.432156 14.2958504,12.3814067 14.8763718,12.8136906 C15.1502253,13.0713463 15.2934952,13.4385271 15.2664736,13.8134673 C15.2457414,14.1876546 15.0631956,14.5343239 14.7663431,14.7632551 C14.4986111,15.0145654 14.114617,15.0990032 13.7660821,14.983206 C13.609386,14.8944452 13.5125418,14.7283264 13.5125418,14.5483032 C13.5125418,14.3682799 13.609386,14.2021611 13.7660821,14.1134003 C13.9161213,14.0234204 14.1161735,14.0534137 14.2362048,13.9034472 C14.2802428,13.8465379 14.2997298,13.7744119 14.2903397,13.7030813 C14.2809495,13.6317507 14.2434592,13.5671181 14.1861917,13.523532 C14.095922,13.4737177 13.9863858,13.4737177 13.896116,13.523532 C13.6195319,13.6758253 13.3667792,13.8678243 13.1459203,14.0934047 C12.8658558,14.3483328 12.5647022,14.5791054 12.2456854,14.7832507 C11.5584327,15.2022722 10.8088768,15.5093738 10.0251059,15.6930475 C9.17308017,15.8951849 8.30012058,15.9958622 7.4244273,15.9929805 C5.7281716,16.0604321 4.04810292,15.6406183 2.58316401,14.7832507 C1.90564803,14.3476728 1.32649633,13.7756117 0.882720292,13.1036258 C0.416791257,12.4055007 0.12207925,11.6074234 0.0224958225,10.7741461 C-0.0074986075,10.3647858 -0.0074986075,9.953781 0.0224958225,9.54442071 C0.0224958225,9.04453236 0.0224958225,8.544644 0.122521924,8.04475565 C0.237179472,7.05185699 0.427787006,6.0691994 0.6926707,5.10541212 C0.951176356,4.13423302 1.28562587,3.1848563 1.69293171,2.26604626 C1.89298391,1.81614674 2.11304134,1.37624499 2.34310137,0.946341005 C2.5731614,0.51643702 2.71319794,0.13652187 3.14331018,0.0265464314 C3.33432272,-0.0235784554 3.537075,-0.00224644389 3.71345895,0.086533034 Z M2.71319794,6.29514641 C2.76321099,5.72527368 3.94351899,5.83524912 4.44364949,5.90523349 C4.8664139,5.94404731 5.27927405,6.05566852 5.66396793,6.2351598 C5.90403057,6.35513301 6.26412453,6.48510398 6.20410887,6.8150303 C6.14409321,7.14495661 5.72398359,7.15495438 5.25386091,7.29492312 C4.67213557,7.4460745 4.13195653,7.72628485 3.67344851,8.11474002 C3.53877055,8.23752832 3.34426709,8.2692692 3.17751005,8.19567186 C3.010753,8.12207453 2.90318924,7.9570179 2.90324753,7.77481594 C2.9632632,7.35490972 3.9535216,6.9350035 4.29361034,6.83502583 C3.98788457,6.79964969 3.67909598,6.79964969 3.37337021,6.83502583 C3.01327625,6.88501467 2.66318489,6.86501913 2.71319794,6.29514641 Z M10.4752234,5.87524019 C10.9753539,5.80525582 12.1756671,5.79525805 12.2156775,6.2651531 C12.255688,6.73504816 11.9155992,6.85502136 11.5555053,6.80503253 C11.2497543,6.77009599 10.9410161,6.77009599 10.6352652,6.80503253 C10.9653513,6.9050102 11.9556097,7.32491642 12.025628,7.73482487 C12.0856436,8.17472662 11.6055183,8.38467973 11.3154426,8.07474895 C10.855451,7.68497279 10.310913,7.40770094 9.72502763,7.26492982 C9.21489451,7.12496108 8.77477967,7.06497447 8.72476662,6.79503476 C8.67475357,6.52509505 9.01484231,6.32513971 9.26490756,6.2051665 C9.6461385,6.02583459 10.0556887,5.91419315 10.4752234,5.87524019 Z" id="path-1"></path>
        <linearGradient x1="19.8962164%" y1="13.5642347%" x2="95.9367091%" y2="100%" id="linearGradient-3">
            <stop stop-color="#FFA6C0" offset="0%"></stop>
            <stop stop-color="#FB7299" offset="100%"></stop>
        </linearGradient>
    </defs>
    <g id="页面-1" stroke="none" stroke-width="1" fill="none" fill-rule="evenodd">
        <g id="画板" transform="translate(-10.000000, -42.000000)">
            <g id="编组-2" transform="translate(10.000000, 42.000000)">
                <mask id="mask-2" fill="white">
                    <use xlink:href="#path-1"></use>
                </mask>
                <use id="logo" fill="#B3B3B3" fill-rule="nonzero" xlink:href="#path-1"></use>
                <rect id="矩形" fill="url(#linearGradient-3)" mask="url(#mask-2)" x="-0.5" y="0" width="115.5" height="120.5"></rect>
            </g>
        </g>
    </g>
</svg>