<?xml version="1.0" encoding="utf-8"?>
<!-- Generator: Adobe Illustrator 22.0.0, SVG Export Plug-In . SVG Version: 6.00 Build 0)  -->
<svg version="1.1" id="图层_1" xmlns="http://www.w3.org/2000/svg" xmlns:xlink="http://www.w3.org/1999/xlink" x="0px" y="0px"
	 viewBox="0 0 64 61" style="enable-background:new 0 0 64 61;" xml:space="preserve">
<style type="text/css">
	.st0{fill:#FFFFFF;}
</style>
<title>cat</title>
<desc>Created with Sketch.</desc>
<path d="M63.2,40c0.2-0.2,0.5-0.1,0.7,0.1s0.1,0.5-0.1,0.6c-0.1,0.1-0.2,0.2-0.4,0.3c-0.8,0.5-1.6,0.8-2.5,1c-0.5,0.1-1.1,0.1-1.5,0
	c0,0.1,0,0.2,0,0.3c-0.1,0.6-0.3,1.4-0.5,2.1c-0.6,2.2-1.7,4.4-3.3,6.5c-2,2.7-4.8,4.9-8.3,6.5c-4.1,1.9-9.3,2.9-15.4,2.9
	c-6.1,0-11.1-1-15.3-2.9c-3.5-1.6-6.3-3.8-8.3-6.4c-1.6-2-2.7-4.2-3.4-6.4c-0.2-0.8-0.4-1.5-0.5-2.1c0-0.1,0-0.2-0.1-0.4
	c-0.1,0-0.3,0-0.5-0.1c-0.6-0.1-1.2-0.2-1.8-0.5c-0.8-0.3-1.4-0.6-1.9-1.1C0,40.4,0,40.1,0.1,40s0.5-0.2,0.7,0
	c0.4,0.4,0.9,0.7,1.5,0.9c0.5,0.2,1.1,0.3,1.6,0.4c0.1,0,0.2,0,0.2,0v-0.4c-1.4-1.3-2.5-2.6-3.2-3.8c-0.3-0.5-0.5-0.9-0.7-1.2
	c-0.1-0.1-0.1-0.2-0.1-0.4c0-0.1,0-0.1,0-0.1c-0.1-0.2,0.1-0.5,0.3-0.6c0.2-0.1,0.5,0.1,0.6,0.3c0,0,0,0,0,0.1
	c0,0.1,0.1,0.2,0.1,0.3c0.2,0.3,0.4,0.7,0.6,1.1c0.6,1,1.4,2,2.4,3c-0.1-2.7,0.1-5.5,0.4-8.5c0.7-7,2.5-13.7,5-20
	c1.2-3,2.4-5.6,3.7-8c0.4-0.8,0.9-1.6,1.2-2.2c0.1-0.2,0.2-0.4,0.3-0.6c0-0.1,0.1-0.1,0.1-0.1c0,0,0,0,0,0c0.2-0.2,0.5-0.3,0.7-0.1
	c0.9,0.9,1.8,2,2.7,3.2c0.9,1.2,1.7,2.6,2.5,3.9c0.3,0.5,0.5,0.9,0.7,1.3c0,0,0.1,0.1,0.1,0.2c1.9-0.5,4.3-0.8,6.7-1
	c3.5-0.4,7.3-0.1,10.9,0.5c0.8,0.1,1.6,0.3,2.3,0.4c0.2,0,0.3,0.1,0.5,0.1c0.2-0.3,0.3-0.6,0.5-1c1.2-2.1,2.5-4,3.8-5.6
	c0.5-0.6,0.9-1,1.2-1.4c0.1-0.1,0.2-0.3,0.4-0.4C47.9,0.2,48,0.2,48,0.1c0.2-0.2,0.6-0.2,0.7,0.1c2.6,4.4,4.8,8.9,6.4,13.6
	c1.4,4,2.5,8.1,3.2,12.1c0.6,3.3,1,6.4,1.1,9.4c0.1,1.5,0.1,2.8,0.1,3.9c0.4-0.4,0.9-0.8,1.3-1.2c0.6-0.7,1.2-1.4,1.7-2.1
	c0.2-0.2,0.3-0.5,0.4-0.7c0-0.1,0.1-0.1,0.1-0.2c0,0,0,0,0-0.1c0.1-0.2,0.4-0.3,0.6-0.2c0.2,0.1,0.3,0.4,0.2,0.6
	c0,0.1-0.1,0.1-0.2,0.3c-0.1,0.2-0.3,0.5-0.5,0.7c-0.5,0.7-1.1,1.5-1.8,2.2c-0.6,0.6-1.2,1.2-1.9,1.7l0,0.7c0.4,0,0.8,0,1.2,0
	c0.7-0.1,1.5-0.4,2.1-0.8C63,40.1,63.1,40.1,63.2,40z"/>
<path class="st0" d="M10.1,31.2c-0.7,2-0.7,4.2,0.2,6.3c0.8,2,2.4,3.6,4.4,4.4c2.4,0.9,4.8,0.9,6.9-0.1c0,0-0.1,0-0.1-0.1
	c-0.5-0.4-1.1-1-1.6-1.6c-1.4-1.7-2.3-3.7-2.3-6.1c0-2.4,0.9-4.4,2.5-6.1c0.5-0.6,1.1-1,1.7-1.4c0,0,0.1,0,0.1-0.1
	c-0.5-0.3-1-0.5-1.6-0.6c-0.7-0.2-1.5-0.3-2.3-0.3C14.5,25.6,11.3,27.9,10.1,31.2z"/>
<path class="st0" d="M58.6,40.7c0.1-1.4,0.1-3.2,0-5.3c-0.1-2.9-0.5-6-1.1-9.3c-0.7-4-1.8-8-3.2-12c-1.6-4.4-3.6-8.7-6-12.9
	c0,0,0,0,0,0c-0.4,0.4-0.8,0.9-1.2,1.4c-1.3,1.5-2.5,3.4-3.7,5.5c-0.2,0.4-0.5,0.8-0.7,1.3c-0.1,0.2-0.3,0.3-0.5,0.2c0,0,0,0,0,0
	c0,0-0.1,0-0.2,0c-0.2,0-0.4-0.1-0.6-0.1c-0.7-0.1-1.4-0.3-2.2-0.4c-3.4-0.6-7-0.8-10.3-0.5c0,0.3,0,0.6,0,0.9
	c-0.1,0.9-0.2,1.8-0.4,2.8c-0.5,2.7-1.5,5.5-3,8c-1.1,1.8-2.5,3.5-4.1,5c0.6,0.2,1.2,0.5,1.8,0.9l0.7,0.4c2.4,1.7,3.7,4.5,3.7,7.5
	c0,3.4-1.8,6.5-4.8,8.2c-2.5,1.4-5.5,1.6-8.4,0.5c-2.2-0.9-4-2.6-4.9-4.9c-0.8-2.1-1-4.3-0.4-6.3c-0.1,0-0.2,0-0.3,0
	c-0.4,0-0.9,0.1-1.3,0.1c-0.3,0-0.5,0-0.8,0c0,0-0.1,0-0.1,0c-0.4,0-0.7,0-1.1-0.1c0,0-0.1,0-0.1,0c-0.4,3.5-0.5,6.8-0.3,10
	c0,0,0,0,0,0c0,0,0,0.1,0,0.1c0,0.2,0.1,0.3,0.1,0.6c0.1,0.6,0.3,1.3,0.5,2c0.7,2.1,1.7,4.2,3.3,6.1c2,2.5,4.6,4.6,8,6.1
	c4,1.8,8.9,2.8,14.9,2.8c6,0,11-1,15.1-2.8c3.4-1.6,6-3.7,7.9-6.2c1.5-2,2.5-4.1,3.1-6.2c0.2-0.7,0.4-1.4,0.5-2
	c0-0.2,0.1-0.4,0.1-0.6c0-0.1,0-0.1,0-0.1c0,0,0,0,0,0c0,0,0,0,0,0c0,0,0,0,0,0c0,0,0-0.1,0-0.1C58.6,41.1,58.6,40.9,58.6,40.7z"/>
<path d="M54.1,38.9c-0.9-0.6-1.9-1.1-2.9-1.6c-2.6-1.2-5.3-1.9-8.1-2.2c-1.4-0.2-2.7-0.2-3.9-0.2c0.6-0.3,1.3-0.7,1.9-1
	c2.7-1.3,5.6-2.3,8.5-3c1-0.3,2-0.5,2.8-0.7c0.3-0.1,0.6-0.1,0.8-0.2c0.1,0,0.1,0,0.2,0c0,0,0.1,0,0.1,0c0.3,0,0.4-0.3,0.4-0.5
	c0-0.3-0.3-0.4-0.5-0.4c0,0,0,0-0.1,0c-0.1,0-0.1,0-0.2,0c-0.2,0-0.5,0.1-0.8,0.2c-0.9,0.2-1.8,0.4-2.9,0.7c-3,0.8-5.9,1.8-8.7,3.1
	c-1.3,0.6-2.5,1.3-3.7,2l-1.8,1.1l2.1-0.3c0,0,0,0,0,0c0,0,0.1,0,0.1,0c0.1,0,0.3,0,0.4,0c1.4-0.1,3.1-0.1,5,0.1
	c2.7,0.3,5.4,1,7.8,2.1c1,0.4,1.9,0.9,2.8,1.5c0.2,0.1,0.5,0.1,0.6-0.1C54.3,39.3,54.3,39,54.1,38.9z"/>
</svg>
