<?xml version="1.0" standalone="no"?><!DOCTYPE svg PUBLIC "-//W3C//DTD SVG 1.1//EN" "http://www.w3.org/Graphics/SVG/1.1/DTD/svg11.dtd"><svg t="1534666847824" class="icon" style="" viewBox="0 0 1024 1024" version="1.1" xmlns="http://www.w3.org/2000/svg" p-id="674" xmlns:xlink="http://www.w3.org/1999/xlink" width="32" height="32"><defs><style type="text/css"></style></defs><path d="M854.96274204 457.82301505l-2.02770069-13.61456346-75.02493735-9.84883342-20.85635353-50.69252581 46.6371231-60.83102989-7.82113206-11.0075201A340.94344181 340.94344181 0 0 0 714.76170075 230.43083027L704.33352399 222.3200262l-59.38267256 45.47843708-50.98219645-21.14602485-9.84883342-74.73526602L569.92591409 169.59979973A361.220452 361.220452 0 0 0 510.25357019 164.38571167a336.30869645 336.30869645 0 0 0-54.45825582 4.92441671L442.47042223 171.33782974l-9.55916207 72.70756467-50.98219716 21.14602486-57.93431453-45.18876575-11.00751943 7.82113274A351.37161858 351.37161858 0 0 0 230.14115894 309.22149834L222.3200262 319.93934644l44.03007908 57.93431453-21.14602487 50.4028538-72.70756466 9.55916209-2.60704402 13.0352208A352.24063326 352.24063326 0 0 0 164.38571167 511.99159955a345.28851519 345.28851519 0 0 0 4.63474538 54.45825584l2.02770069 13.61456412 71.54887864 9.26949009 21.14602487 50.98219714-44.89909374 57.93431454 7.53146074 11.00751942a344.41950051 344.41950051 0 0 0 80.52869741 82.26672675l11.0075201 10.13850544 57.93431454-44.31975108 50.69252512 21.14602486 9.84883342 74.15592269 13.03522079 2.31737268A376.57304548 376.57304548 0 0 0 511.99159955 859.59748743a354.26833394 354.26833394 0 0 0 52.43055448-4.34507337l13.61456412-2.31737271 9.84883343-73.286908 50.69252512-21.14602486 60.54135925 46.34745176 11.00751941-7.5314614a351.95096124 351.95096124 0 0 0 81.97705544-79.94935407l9.55916209-11.29719145-45.76810842-59.67234388 20.85635286-50.69252513 76.47329536-10.13850543 2.3173727-13.32489212A344.99884386 344.99884386 0 0 0 859.59748743 511.99159955a336.30869645 336.30869645 0 0 0-4.63474539-54.1685845z m-28.96715692 101.67472227l-53.29956983 7.24178939-16.51127948 2.3173727-6.37277474 15.35259347-21.14602486 50.98219714-6.37277472 15.3525928 10.13850544 13.32489281 32.73288762 42.29204972a327.03920635 327.03920635 0 0 1-64.01741794 62.56905992L656.82738623 735.61805428l-13.32489212-10.13850543-15.35259349 6.37277472-50.98219714 21.14602488-15.35259346 6.37277471-2.3173727 16.51127948-6.66244605 51.85121183A291.40960269 291.40960269 0 0 1 511.99159955 830.63032981a353.9786626 353.9786626 0 0 1-49.82351047-4.34507335L454.05728501 772.69601529v-15.93193615l-15.35259347-6.37277473-51.85121182-21.14602485-15.35259349-6.37277474-13.3248921 10.13850476-40.55402039 30.99485897a322.40446098 322.40446098 0 0 1-62.85873123-64.30708926L286.62711547 656.82738623l10.13850543-13.32489212-6.37277473-15.6422655-21.14602486-50.69252513-6.37277473-15.64226481-16.51127948-2.02770135-49.82351114-6.66244605A323.56314697 323.56314697 0 0 1 193.35286928 511.99159955a278.66405324 278.66405324 0 0 1 4.05540203-48.08548111l51.56153981-6.95211807 16.51127948-2.89671536 6.37277473-15.35259347 21.14602486-50.98219715 6.37277472-15.35259347-10.13850543-13.32489213-30.99485828-39.39533368a310.23825487 310.23825487 0 0 1 64.30708926-63.43807459L364.25909752 288.36514481l13.32489213 10.13850543 15.64226479-6.37277472 50.69252514-21.14602487 15.64226549-6.37277472 2.02770067-16.51127948 6.66244607-51.56154049A309.3692402 309.3692402 0 0 1 510.25357019 193.35286928a322.69413231 322.69413231 0 0 1 47.79580979 3.47605869L565.2911687 251.2871838l2.02770136 16.80095083 15.64226481 6.37277472 50.69252513 21.14602487 15.64226549 6.37277472 13.32489211-10.13850476 42.0023784-32.4432163a327.3288777 327.3288777 0 0 1 63.14840257 63.43807459L733.88002493 367.15581287l-10.13850543 13.32489212 6.37277473 15.35259347 21.14602485 50.98219715 6.37277474 15.35259347 16.51127948 2.3173727 53.29956917 6.95211739A267.94620514 267.94620514 0 0 1 830.63032981 511.99159955a307.63121084 307.63121084 0 0 1-3.76573002 47.50613777z" fill="#bfbfbf" p-id="675"></path><path d="M511.99159955 396.12297048a115.86862906 115.86862906 0 1 0 115.86862906 115.86862907 115.86862906 115.86862906 0 0 0-115.86862906-115.86862907z m0 202.77010119a86.90147213 86.90147213 0 1 1 86.90147213-86.90147212 86.90147213 86.90147213 0 0 1-86.90147213 86.90147212z" fill="#bfbfbf" p-id="676"></path></svg>