<?xml version="1.0" encoding="UTF-8" standalone="no"?>
<svg width="33px" height="29px" viewBox="0 0 33 29" version="1.1" xmlns="http://www.w3.org/2000/svg" xmlns:xlink="http://www.w3.org/1999/xlink" xmlns:sketch="http://www.bohemiancoding.com/sketch/ns">
    <!-- Generator: Sketch 3.3.3 (12072) - http://www.bohemiancoding.com/sketch -->
    <title>Shape</title>
    <desc>Created with Sketch.</desc>
    <defs></defs>
    <g id="Page-1" stroke="none" stroke-width="1" fill="none" fill-rule="evenodd" sketch:type="MSPage">
        <path d="M32.28,26.876 C31.401,26.876 30.556,26.881 29.71,26.868 C29.639,26.866 29.515,26.747 29.508,26.674 C29.379,25.355 29.266,24.034 29.146,22.714 C29.034,21.487 28.918,20.26 28.804,19.033 C28.687,17.77 28.571,16.506 28.454,15.242 C28.447,15.169 28.434,15.097 28.417,14.986 C28.729,14.951 29.032,14.889 29.334,14.889 C30.155,14.888 30.975,14.91 31.795,14.929 C32.006,14.934 32.097,15.074 32.109,15.264 C32.135,15.659 32.172,16.054 32.174,16.449 C32.181,18.311 32.166,20.173 32.183,22.036 C32.197,23.523 32.247,25.01 32.28,26.497 C32.282,26.59 32.28,26.684 32.28,26.876 L32.28,26.876 Z M32.048,13.515 C31.488,13.489 30.953,13.464 30.351,13.436 L30.351,8.991 C30.786,8.991 31.249,8.986 31.71,8.994 C31.942,8.998 32.06,9.088 32.056,9.36 C32.039,10.648 32.048,11.937 32.048,13.225 L32.048,13.515 L32.048,13.515 Z M28.106,9.005 C28.566,9.005 29.026,9.013 29.484,9.002 C29.693,8.996 29.768,9.039 29.761,9.27 C29.744,9.889 29.769,10.509 29.771,11.129 C29.774,11.897 29.772,12.665 29.772,13.429 C29.308,13.475 28.898,13.516 28.461,13.56 C28.345,12.068 28.228,10.574 28.106,9.005 L28.106,9.005 Z M27.406,25.44 C26.613,25.367 25.819,25.31 24.964,25.243 C24.234,18.029 23.615,10.733 22.197,3.48 C22.657,3.428 23.119,3.366 23.583,3.325 C24.121,3.279 24.661,3.259 25.199,3.214 C25.646,3.177 25.816,3.294 25.846,3.722 C25.928,4.868 25.999,6.015 26.079,7.162 C26.188,8.712 26.301,10.263 26.413,11.813 C26.494,12.931 26.567,14.05 26.66,15.167 C26.76,16.386 26.879,17.604 26.99,18.823 C27.072,19.723 27.148,20.624 27.238,21.523 C27.335,22.496 27.445,23.469 27.549,24.442 C27.578,24.721 27.61,25.001 27.629,25.281 C27.64,25.435 27.555,25.454 27.406,25.44 L27.406,25.44 Z M22.639,19.714 C22.737,20.621 22.835,21.528 22.945,22.434 C23.062,23.405 23.195,24.374 23.319,25.343 C23.356,25.631 23.387,25.918 23.423,26.229 C22.512,26.343 21.621,26.454 20.685,26.57 C19.899,22.647 19.121,18.758 18.327,14.796 C18.97,14.707 19.595,14.608 20.222,14.536 C20.672,14.485 21.127,14.48 21.578,14.438 C21.823,14.415 21.979,14.501 22.018,14.734 C22.121,15.355 22.228,15.975 22.303,16.6 C22.428,17.636 22.526,18.676 22.639,19.714 L22.639,19.714 Z M19.542,8.552 C20.051,8.544 20.559,8.531 21.066,8.532 C21.232,8.532 21.309,8.624 21.326,8.802 C21.46,10.187 21.605,11.572 21.752,13.008 C21.224,13.041 20.684,13.076 20.132,13.111 C19.935,11.588 19.742,10.101 19.542,8.552 L19.542,8.552 Z M17.382,8.981 C17.876,8.909 18.367,8.83 18.859,8.768 C19.077,8.74 19.036,8.927 19.05,9.044 C19.108,9.539 19.155,10.035 19.209,10.53 C19.293,11.306 19.38,12.082 19.463,12.858 C19.474,12.96 19.464,13.064 19.464,13.175 C19.045,13.256 18.634,13.337 18.206,13.42 C17.932,11.945 17.66,10.479 17.382,8.981 L17.382,8.981 Z M18.674,23.121 C18.449,23.787 17.992,24.291 17.415,24.73 C16.06,25.761 14.64,26.69 13.007,27.217 C11.863,27.586 10.675,27.866 9.484,28.045 C7.917,28.281 6.328,28.386 4.747,28.533 C4.423,28.563 4.092,28.52 3.764,28.521 C3.596,28.522 3.553,28.439 3.545,28.294 C3.503,27.589 3.468,26.883 3.405,26.179 C3.324,25.27 3.229,24.363 3.123,23.457 C2.975,22.196 2.811,20.936 2.652,19.677 C2.484,18.352 2.311,17.028 2.145,15.703 C1.982,14.406 1.836,13.106 1.664,11.81 C1.468,10.329 1.253,8.85 1.045,7.369 C0.798,5.619 0.466,3.886 0.003,2.177 C-0.018,2.102 0.046,1.942 0.11,1.917 C1.643,1.313 3.183,0.727 4.717,0.128 C5.228,-0.072 5.273,-0.129 5.273,0.495 C5.277,3.175 5.29,5.856 5.331,8.536 C5.352,9.931 5.406,11.327 5.504,12.719 C5.624,14.418 5.807,16.112 5.965,17.809 C5.972,17.881 6.004,17.951 6.017,17.994 C6.631,17.968 7.198,17.932 7.766,17.922 C10.214,17.882 12.612,18.167 14.898,19.065 C16.014,19.503 17.096,20.009 18.067,20.725 C18.865,21.312 19.039,22.041 18.674,23.121 L18.674,23.121 Z M8.381,20.765 C8.613,22.424 8.843,24.07 9.081,25.771 C10.5,24.724 11.892,23.696 13.284,22.669 C13.108,22.428 9.282,20.96 8.381,20.765 L8.381,20.765 Z" id="Shape" fill="#FFFFFF" sketch:type="MSShapeGroup"></path>
    </g>
</svg>